<?xml version="1.0" standalone="no"?>
<!DOCTYPE svg PUBLIC "-//W3C//DTD SVG 20010904//EN"
 "http://www.w3.org/TR/2001/REC-SVG-20010904/DTD/svg10.dtd">
<svg version="1.0" xmlns="http://www.w3.org/2000/svg"
 width="422.000000pt" height="422.000000pt" viewBox="0 0 422.000000 422.000000"
 preserveAspectRatio="xMidYMid meet">
<metadata>
Created by potrace 1.14, written by Peter Selinger 2001-2017
</metadata>
<g transform="translate(0.000000,422.000000) scale(0.100000,-0.100000)"
fill="#000000" stroke="none">
<path d="M1060 4094 c-141 -36 -280 -136 -363 -262 -73 -111 -102 -211 -99
-339 1 -59 0 -63 -21 -63 -204 -4 -420 -150 -515 -350 -114 -238 -63 -482 133
-636 81 -63 223 -127 330 -149 56 -11 193 -33 260 -41 149 -18 286 -59 363
-108 34 -21 168 -134 332 -280 19 -17 69 -60 110 -96 41 -36 88 -77 105 -92
16 -14 147 -128 290 -253 142 -126 276 -248 296 -272 66 -81 101 -167 180
-443 17 -63 39 -131 47 -150 60 -147 114 -231 198 -309 110 -103 208 -141 350
-136 150 5 272 61 389 179 116 118 175 256 178 419 l2 80 52 3 c104 6 193 41
288 112 147 110 242 280 251 449 5 98 -11 175 -52 253 -95 179 -273 283 -576
335 -60 11 -85 14 -142 20 -124 13 -269 50 -334 87 -73 41 -103 65 -377 307
-17 14 -100 87 -185 161 -85 74 -171 149 -190 166 -19 17 -114 100 -210 185
-96 84 -191 173 -211 197 -63 75 -118 207 -164 392 -61 240 -145 402 -267 516
-125 115 -288 158 -448 118z"/>
</g>
</svg>
